<svg xmlns="http://www.w3.org/2000/svg" version="1.1" xmlns:xlink="http://www.w3.org/1999/xlink" width="551.1913492032999" height="200" viewBox="0.04000000283122063 11.319999694824219 142.6800079345703 45.400001525878906"><path d="M23.52 24.24L23.52 24.24Q23.52 24.24 25.28 24.12L25.28 24.12Q28.12 24.12 29.50 25.18Q30.88 26.24 30.88 28.18Q30.88 30.12 29.12 32.72Q27.36 35.32 24.56 37.44L24.56 37.44L26.84 37.44Q28.24 37.44 28.80 37.32Q29.36 37.20 29.44 37.20L29.44 37.20Q30 37.20 30 37.80Q30 38.40 29.20 38.44L29.20 38.44Q26.12 38.44 23.28 38.36L23.28 38.36Q18.80 41.20 14.48 41.20L14.48 41.20Q12.44 41.20 11.24 40.44Q10.04 39.68 10.04 38.90Q10.04 38.12 10.70 37.68Q11.36 37.24 12.56 37.24L12.56 37.24Q17.24 37.24 23.04 37.44L23.04 37.44Q25.44 35.48 26.88 32.90Q28.32 30.32 28.32 28.24L28.32 28.24Q28.32 24.92 24.76 24.92L24.76 24.92Q23.36 24.92 21.86 25.36Q20.36 25.80 20.06 25.98Q19.76 26.16 19.68 26.16L19.68 26.16Q19.44 26.16 19.44 25.82Q19.44 25.48 20.48 25L20.48 25Q25.04 22.80 29.40 19.14Q33.76 15.48 33.76 13.92L33.76 13.92Q33.76 13.20 32.64 13.20L32.64 13.20Q28.08 13.24 20.12 20.04L20.12 20.04Q18.52 24.16 14.86 30.16Q11.20 36.16 7.20 40.90Q3.20 45.64 1.24 45.64L1.24 45.64Q0.04 45.64 0.04 44.40L0.04 44.40Q0.04 41.56 5.42 34.28Q10.80 27 17.60 20.88L17.60 20.88Q18.80 17.96 18.80 16.62Q18.80 15.28 18.16 14.50Q17.52 13.72 16.28 13.36L16.28 13.36Q14.32 12.84 12.14 12.84Q9.96 12.84 8.80 12.94Q7.64 13.04 5.98 13.34Q4.32 13.64 3.28 14.38Q2.24 15.12 2.24 16.26Q2.24 17.40 3.36 18.02Q4.48 18.64 6.10 18.88Q7.72 19.12 9.32 19.40Q10.92 19.68 12.04 20.50Q13.16 21.32 13.16 22.80L13.16 22.80Q13.16 23.20 12.98 23.20Q12.80 23.20 12.70 23.08Q12.60 22.96 12.36 22.60L12.36 22.60Q12 22.08 11.30 21.80Q10.60 21.52 9.14 21.26Q7.68 21 6.38 20.70Q5.08 20.40 3.76 19.92Q2.44 19.44 1.64 18.56Q0.84 17.68 0.84 16.50Q0.84 15.32 1.84 14.40Q2.84 13.48 4.48 12.96L4.48 12.96Q7.84 11.96 11.48 11.96L11.48 11.96Q20.92 11.96 20.92 16.92L20.92 16.92Q20.92 17.36 20.72 18.24L20.72 18.24Q28.80 11.72 33.84 11.72L33.84 11.72Q36.08 11.72 36.08 13.08L36.08 13.08Q36.08 15.04 31.98 18.64Q27.88 22.24 23.52 24.24ZM2.24 44.48L2.24 44.48Q3.40 44.48 8.46 37.06Q13.52 29.64 16.56 23.24L16.56 23.24Q10.56 28.96 5.94 35.14Q1.32 41.32 1.32 43.56L1.32 43.56Q1.32 44.48 2.24 44.48ZM21.80 38.32L21.80 38.32L14.56 38.16Q11.48 38.16 11.48 39.08L11.48 39.08Q11.48 39.60 12.52 40.06Q13.56 40.52 14.92 40.52L14.92 40.52Q18.48 40.52 21.80 38.32ZM43.76 34.20L44.76 33.36Q45.04 33.16 45.28 33.16Q45.52 33.16 45.52 33.44L45.52 33.44L45.52 33.52Q41.36 36.96 38.60 38.68Q35.84 40.40 33.60 40.40L33.60 40.40Q31.80 40.40 31.80 38.64L31.80 38.64Q31.80 36.04 34.44 33.30Q37.08 30.56 38.88 30.56L38.88 30.56Q39.88 30.56 39.88 31.68L39.88 31.68Q39.68 33.88 33.56 37.60L33.56 37.60L33.56 38Q33.56 39.32 34.94 39.32Q36.32 39.32 37.92 38.40L37.92 38.40Q41.04 36.56 43.76 34.20L43.76 34.20ZM37.84 31.80L37.84 31.80Q36.96 31.80 35.58 33.28Q34.20 34.76 33.72 36.64L33.72 36.64Q35.64 35.48 36.96 34.18Q38.28 32.88 38.28 32.34Q38.28 31.80 37.84 31.80ZM61.04 33.36L61.04 33.48Q52.60 40.52 50.60 40.52L50.60 40.52Q49.44 40.52 49.44 39.56Q49.44 38.60 50.30 37.28Q51.16 35.96 52.02 34.94Q52.88 33.92 52.88 33.72Q52.88 33.52 52.76 33.52L52.76 33.52Q49.04 36 48.34 36.56Q47.64 37.12 46.06 38.40Q44.48 39.68 44 40Q43.52 40.32 42.96 40.32L42.96 40.32Q42.40 40.32 42.40 39.84L42.40 39.84Q42.40 39.28 44.64 36.32L44.64 36.32Q46.80 33.36 46.80 33L46.80 33Q46.80 32.92 46.66 32.92Q46.52 32.92 43.20 35.36L43.20 35.36L43.04 34.76Q45.88 32.48 46.88 31.84Q47.88 31.20 48.50 31.20Q49.12 31.20 49.12 31.80L49.12 31.80Q49.12 32.20 46.86 35.06Q44.60 37.92 44.60 38.14Q44.60 38.36 44.74 38.36Q44.88 38.36 49.30 35.14Q53.72 31.92 54.68 31.92L54.68 31.92Q54.96 31.92 55.22 32.14Q55.48 32.36 55.48 32.56L55.48 32.56Q55.48 33.04 53.36 35.74Q51.24 38.44 51.24 38.80Q51.24 39.16 51.74 39.16Q52.24 39.16 53.88 38.08L53.88 38.08Q56.88 36.12 59.40 34.04L59.40 34.04L60.28 33.32Q60.56 33.12 60.80 33.12Q61.04 33.12 61.04 33.36L61.04 33.36ZM65.92 40.64L65.92 40.64Q65.12 40.64 65.12 39.84L65.12 39.84Q65.12 37.68 69.98 31.64Q74.84 25.60 80.12 21.24L80.12 21.24Q82.04 17.20 82.04 14.96L82.04 14.96Q82.04 12.28 79.36 12.28L79.36 12.28Q76.84 12.28 73.42 14.80Q70 17.32 67.64 20.42Q65.28 23.52 65.28 25.28L65.28 25.28Q65.28 26.56 66.76 26.56L66.76 26.56Q68.88 26.56 71.38 24.40Q73.88 22.24 75.12 20.20L75.12 20.20Q75.56 19.48 75.84 19.48Q76.12 19.48 76.12 19.76Q76.12 20.04 75.96 20.24L75.96 20.24Q74.60 22.28 71.64 24.92Q68.68 27.56 66.24 27.56Q63.80 27.56 63.80 25.76L63.80 25.76Q63.80 24.20 65.48 21.72Q67.16 19.24 69.58 16.94Q72 14.64 75.02 12.98Q78.04 11.32 80.40 11.32L80.40 11.32Q83.48 11.32 83.48 14.36L83.48 14.36Q83.48 16.36 82.04 19.76L82.04 19.76Q86 16.84 88.40 16.84L88.40 16.84Q89.84 16.84 89.84 18.36Q89.84 19.88 87.16 24.26Q84.48 28.64 81.80 32.16L81.80 32.16L79.12 35.72Q79.12 35.80 79.16 35.80L79.16 35.80Q80.68 34.76 84.50 31.24Q88.32 27.72 91.54 25.16Q94.76 22.60 96.32 22.60L96.32 22.60Q97.24 22.60 97.24 23.52Q97.24 24.44 94.84 27.64Q92.44 30.84 90.04 34.20Q87.64 37.56 87.64 38.84Q87.64 40.12 88.72 40.12L88.72 40.12Q89.96 40.12 91.96 38.86Q93.96 37.60 94.76 36.84Q95.56 36.08 95.76 36.08Q95.96 36.08 95.96 36.24L95.96 36.24Q95.96 36.72 94.62 37.88Q93.28 39.04 91.26 40.08Q89.24 41.12 87.80 41.12L87.80 41.12Q85.88 41.12 85.88 39.54Q85.88 37.96 87.22 35.68Q88.56 33.40 90.16 31.44L90.16 31.44Q94.72 26 95.24 24.24L95.24 24.24Q95.24 23.80 94.84 23.80L94.84 23.80Q93.88 23.80 88.92 28.12Q83.96 32.44 81.64 34.68Q79.32 36.92 78.52 37.72Q77.72 38.52 77.28 39Q76.84 39.48 76.40 39.88L76.40 39.88Q75.56 40.64 75.28 40.64L75.28 40.64Q75.24 40.64 75.20 40.60L75.20 40.60Q74.84 40.44 74.84 40.04L74.84 40.04Q74.84 39.04 77.40 35.84L77.40 35.84Q81.92 30.24 85.10 25.20Q88.28 20.16 88.28 18.48L88.28 18.48Q88.28 17.84 87.48 17.84L87.48 17.84Q85.52 17.84 81.32 21.36L81.32 21.36Q78.28 27.60 73 34.12Q67.72 40.64 65.92 40.64ZM66.80 39.60L66.80 39.60Q67.84 39.60 72.04 34.14Q76.24 28.68 79.12 23.28L79.12 23.28Q74.56 27.48 70.46 32.58Q66.36 37.68 66.36 39.16L66.36 39.16Q66.36 39.60 66.80 39.60ZM103.30 27.92Q103.68 27.92 103.90 28.16Q104.12 28.40 104.12 28.84Q104.12 29.28 103.52 29.96Q102.92 30.64 102.48 30.64Q102.04 30.64 101.84 30.38Q101.64 30.12 101.64 29.78Q101.64 29.44 102.28 28.68Q102.92 27.92 103.30 27.92ZM105.72 34.04L106.60 33.32Q106.92 33.12 107.10 33.12Q107.28 33.12 107.28 33.36L107.28 33.36L107.28 33.48Q107.44 33.48 105.14 35.24Q102.84 37 100.22 38.76Q97.60 40.52 96.92 40.52L96.92 40.52Q95.76 40.52 95.76 39.56L95.76 39.56Q95.76 38.40 97.76 35.18Q99.76 31.96 100.68 31.96L100.68 31.96Q101.36 31.96 101.36 32.48Q101.36 33 99.52 35.32Q97.68 37.64 97.68 38.64L97.68 38.64Q97.68 39.20 98.10 39.20Q98.52 39.20 100.20 38.08L100.20 38.08Q103.20 36.08 105.72 34.04L105.72 34.04ZM96.20 55.68L96.20 55.68Q97.16 55.68 99.40 53.44Q101.64 51.20 103.68 48.02Q105.72 44.84 106.00 42.64L106.00 42.64Q101.88 45.32 98.82 48.70Q95.76 52.08 95.76 55.08L95.76 55.08Q95.76 55.68 96.20 55.68ZM109.18 39.98Q110.24 39.48 110.56 39.48Q110.88 39.48 110.88 39.76Q110.88 40.04 110.40 40.24L110.40 40.24Q109.08 40.72 107.32 41.84L107.32 41.84L107.32 42.04Q107.32 44.44 104.84 48.04Q102.36 51.64 99.46 54.18Q96.56 56.72 95.20 56.72L95.20 56.72Q94.16 56.72 94.16 55.56L94.16 55.56Q94.16 53.88 95.30 51.90Q96.44 49.92 98.28 48.08L98.28 48.08Q101.88 44.36 106.08 41.72L106.08 41.72Q105.88 39.64 103.40 39.48L103.40 39.48Q102.80 39.48 102.80 39.12L102.80 39.12Q102.80 39 103.36 38.66Q103.92 38.32 105.16 37.56Q106.40 36.80 108.24 35.22Q110.08 33.64 110.08 32.72L110.08 32.72Q110.08 32.28 109.68 32.28L109.68 32.28Q108.76 32.28 106.16 34.36L106.16 34.36L104.92 35.36L104.76 34.76Q105.24 34.40 105.84 33.92L105.84 33.92Q109.44 30.96 111.20 30.96L111.20 30.96Q112.28 30.96 112.28 32.12L112.28 32.12Q112.28 34.48 105.00 38.52L105.00 38.52Q104.68 38.68 104.68 38.84Q104.68 39 104.76 39L104.76 39Q106.76 39.52 107.20 41.04L107.20 41.04Q108.12 40.48 109.18 39.98ZM125.24 34.20L126.24 33.36Q126.52 33.16 126.76 33.16Q127.00 33.16 127.00 33.44L127.00 33.44L127.00 33.52Q122.84 36.96 120.08 38.68Q117.32 40.40 115.08 40.40L115.08 40.40Q113.28 40.40 113.28 38.64L113.28 38.64Q113.28 36.04 115.92 33.30Q118.56 30.56 120.36 30.56L120.36 30.56Q121.36 30.56 121.36 31.68L121.36 31.68Q121.16 33.88 115.04 37.60L115.04 37.60L115.04 38Q115.04 39.32 116.42 39.32Q117.80 39.32 119.40 38.40L119.40 38.40Q122.52 36.56 125.24 34.20L125.24 34.20ZM119.32 31.80L119.32 31.80Q118.44 31.80 117.06 33.28Q115.68 34.76 115.20 36.64L115.20 36.64Q117.12 35.48 118.44 34.18Q119.76 32.88 119.76 32.34Q119.76 31.80 119.32 31.80ZM134.92 34.20L135.92 33.36Q136.20 33.16 136.44 33.16Q136.68 33.16 136.68 33.44L136.68 33.44L136.68 33.52Q132.52 36.96 130.36 38.32L130.36 38.32Q127.56 40.44 125.64 40.44L125.64 40.44Q123.96 40.44 123.96 38.44L123.96 38.44Q123.96 35.76 127.42 30.50Q130.88 25.24 135.20 21.04Q139.52 16.84 141.72 16.84L141.72 16.84Q142.72 16.84 142.72 17.72L142.72 17.72Q142.72 19.92 137.46 24.98Q132.20 30.04 127.12 33.60L127.12 33.60Q125.64 36.44 125.64 37.92Q125.64 39.40 126.68 39.40Q127.72 39.40 129.40 38.20L129.40 38.20Q132.24 36.52 134.92 34.20L134.92 34.20ZM140.72 18.12L140.72 18.12Q139.04 18.12 134.76 22.96Q130.48 27.80 127.68 32.64L127.68 32.64Q132.28 29.36 136.68 24.62Q141.08 19.88 141.08 18.48L141.08 18.48Q141.08 18.12 140.72 18.12Z" fill="black"></path></svg>